<svg xmlns="http://www.w3.org/2000/svg" viewBox="0 0 557.71 705.55"><defs><style>.cls-1{fill:#fc3d3d;}.cls-2{fill:#474747;}.cls-3{fill:none;stroke:#000;stroke-miterlimit:10;stroke-width:32px;}.cls-4{fill:#fff;}</style></defs><title>NSIFichier 2dqsd</title><g id="Calque_2" data-name="Calque 2"><g id="Calque_2-2" data-name="Calque 2"><path class="cls-1" d="M278,27.29s-147.9-12-253.48,46.5V435.27s8.14,126,253.48,243Z"/><path class="cls-2" d="M277,31.79s147.91-12,253.49,46.49V439.77s-8.14,126-253.49,243Z"/><path class="cls-3" d="M273,16S130.75,13.27,16.62,67.81V412.3S-9.92,550.1,284.68,690.76"/><path class="cls-3" d="M273,691.11c294.6-140.66,268.06-278.46,268.06-278.46V68.16C427,13.62,273,16,273,16"/></g><g id="Calque_12" data-name="Calque 12"><path class="cls-4" d="M266.55,352.47c0,19.3-12,36.6-31.33,36.6a34.94,34.94,0,0,1,0-69.88C254.52,319.19,266.55,333.18,266.55,352.47Z"/><path class="cls-4" d="M266.55,532.89c0,19.3-12,36.59-31.33,36.59a34.94,34.94,0,0,1,0-69.88C254.52,499.6,266.55,513.59,266.55,532.89Z"/><polygon class="cls-4" points="200.28 354.13 200.28 534.54 266.55 532.89 266.55 352.47 200.28 354.13"/><path class="cls-4" d="M235,517c15.3,0,29,9.54,29,24.84a27.7,27.7,0,0,1-55.4,0C208.58,526.49,219.67,517,235,517Z"/><path class="cls-4" d="M385.3,513.71c16.24,0,30.8,10.12,30.8,26.37a29.41,29.41,0,0,1-58.82,0C357.28,523.83,369.06,513.71,385.3,513.71Z"/><polygon class="cls-4" points="234.84 569.48 386.69 569.48 385.3 513.71 233.45 513.71 234.84 569.48"/></g><g id="Calque_4" data-name="Calque 4"><polygon class="cls-4" points="176.74 252.87 176.74 116.81 236.93 109.17 236.93 252.87 176.74 252.87"/><polygon class="cls-4" points="199.75 247.88 311.77 104.78 365.45 133.84 247.14 284.98 199.75 247.88"/><polygon class="cls-4" points="70.16 220.93 164.76 88.7 218.46 117.37 115.28 255.52 70.16 220.93"/><path class="cls-4" d="M121.46,236.7c0,16.61-10.36,31.5-27,31.5a30.08,30.08,0,0,1,0-60.15C111.1,208.05,121.46,220.09,121.46,236.7Z"/><path class="cls-4" d="M381.88,126.6c0,20.14-19.44,35.05-39.59,35.05a36.48,36.48,0,1,1,0-72.95C362.44,88.7,381.88,106.45,381.88,126.6Z"/><polygon class="cls-4" points="329.27 327.66 318.84 130.21 381.47 117.37 392.49 325.91 329.27 327.66"/><path class="cls-4" d="M392.49,329.11c0,16.61-16.58,28.65-33.19,28.65a30.07,30.07,0,0,1,0-60.14C375.91,297.62,392.49,312.5,392.49,329.11Z"/><path class="cls-4" d="M237.26,115.52a41.29,41.29,0,0,1-82.58,0c0-22.8,21.6-39.86,44.4-39.86S237.26,92.72,237.26,115.52Z"/><circle class="cls-4" cx="218.46" cy="254.58" r="41.73"/></g></g></svg>